<svg xmlns="http://www.w3.org/2000/svg" xmlns:xlink="http://www.w3.org/1999/xlink" version="1.1" id="Layer_1" x="100px" y="0px" viewBox="0 0 942.2 286.9" xml:space="preserve"  >
<style type="text/css">
	.st0{fill:none;}
	.st1{stroke:#231F20;stroke-width:0.1;}
</style>
<g id="Layer_2">
</g>
<g>
	<g>
		<path class="st0" d="M-189.2,141.3c1.6-0.2,5.9-0.7,10.2-0.7c2.3,0,4.7,0.8,7,0.8c3.9,0.8,7,0.8,10.2,0.8c6.2,0,10.2,0,13.3,0h4.7    v79h-4.6c0,0-4.7,0-10.9,0c-6.2,0-10.2-0.8-14.1-0.8c-3.9,0-7-0.8-11.7-0.8c-1.5,0-1.5,0-2.3,1.5c-0.6,0.4-1.2,0.9-1.8,1.3v32.4    c18.9-10,70.3-41.2,70.3-85.2v-37.5h-70.3V141.3z"/>
		<path class="st0" d="M-172.7,211.8c3.9,0,7.9,0.8,13.3,0.8c2.3,0,3.9,0,5.5,0v-60.9c-2.3,0-5.5,0-8.6,0c-3.1,0-7-0.8-10.9-0.8    c-2.3,0-4.7-0.8-7-0.8c-3.9-0.8-7.9,0-7.9,0c-0.3,0-0.6,0.1-0.9,0.3v61.2c1.2-0.4,2.5-0.6,3.9-0.6    C-180.6,211-176.7,211-172.7,211.8z M-182.9,160.2h20.3v7h-20.3V160.2z M-182.9,176.6h20.3v7h-20.3V176.6z M-182.9,193.1h20.3v7    h-20.3V193.1z"/>
		<path class="st0" d="M-248.6,98.4c0,0.8,1.5,3.2,3.9,4.7c3.9,2.3,9.4,6.2,12.6,7.9c3.2-1.5,9.4-5.5,13.3-7.9    c1.5-0.8,3.9-2.3,3.9-3.9c0-0.8,0-5.3,0-10.9h-33.7C-248.6,93.5-248.6,97.6-248.6,98.4z"/>
		<path class="st0" d="M-207,150.1c-2.3,0-4.7,0.8-7,0.8c-3.9,0.8-7.9,0.8-10.9,0.8c-3.9,0-6.2,0-8.6,0v60.9c1.5,0,3.9,0,5.5,0    c5.5,0,9.4-0.8,13.3-0.8c3.7-0.8,6.8-0.8,12.2-0.8c1.4,0,2.7,0.2,3.9,0.5v-61.2c-0.1-0.1-0.3-0.2-0.5-0.3    C-199.1,150.1-203,149.3-207,150.1z M-208,200.1h-20.3v-7h20.3V200.1z M-208,183.6h-20.3v-7h20.3V183.6z M-208,167.2h-20.3v-7    h20.3V167.2z"/>
		<path class="st0" d="M-214.9,74.2h-33.7c0,2.3,0,4.7,0,7.1h33.7C-214.9,78.9-214.9,76.5-214.9,74.2z"/>
		<path class="st0" d="M-198.6,222.7c-0.7-0.6-1.2-1.2-1.5-1.6c-0.8-0.8-1.5-1.5-2.3-1.5c-4.7,0-7.9,0-11.7,0.8    c-3.9,0-7.9,0.8-14.1,0.8c-6.2,0-10.9,0-10.9,0h-4.7v-79h4.7c3.2,0,7,0,13.3,0c3.2,0,6.2-0.8,10.2-0.8c2.3,0,4.7-0.8,7-0.8    c4.4-0.6,8.3,0.2,10,0.6v-9.1h-70.3v35.2c0,46.9,51.1,77.7,70.3,87.6V222.7z"/>
		<path class="st0" d="M-189.2,150.3c0.1-0.1,0.1-0.1,0.2-0.2l-0.2,0V150.3z"/>
		<path class="st0" d="M-118.9,64h-150v57.9h150V64z M-206.3,70.3c0,18.8,0,28.2,0,28.9c0,3.9-2.3,7-7,10.2    c-6.2,3.9-14.9,9.4-15.6,9.4l-2.4,0.8l-1.5-0.8c0,0-9.4-5.5-14.9-9.4c-4.7-3.2-7-7-7.9-10.2c0-0.8,0-10.2,0-28.9v-3.9h49.3V70.3z     M-129.8,70.3c0,18.8,0,28.2,0,28.9c0,3.9-2.3,7-7,10.2c-6.2,3.9-14.9,9.4-15.6,9.4l-2.4,0.8l-1.5-0.8c0,0-9.4-5.5-14.9-9.4    c-4.7-3.2-7-7-7.9-10.2c0-0.8,0-10.2,0-28.9v-3.9h49.3V70.3z"/>
		<path class="st0" d="M-194.6,15.6c-70.3,0-127.5,57.1-127.5,127.5s57.1,127.5,127.5,127.5s127.5-57.1,127.5-127.5    C-67.2,72.6-124.3,15.6-194.6,15.6z M-107.7,168.9c0,61.8-80.5,97.8-84.4,99.3l-2.5,1.5l-2.3-0.8c-3.2-1.5-84.4-36.7-84.4-101.7    V51.6h173.6V168.9z"/>
		<path class="st0" d="M-138.2,88.3c0-4.3,0-9.4,0-14.1h-33.6v-0.8h-0.1c0,4.7,0,10.1,0,14.7l16.4-11.5L-138.2,88.3z"/>
		<path class="st0" d="M-171.9,96.9c0,0.7,0,1.3,0,1.5c0,0.8,1.5,3.2,3.9,4.7c3.9,2.3,9.4,6.2,12.6,7.9c3.2-1.5,9.4-5.5,13.3-7.9    c1.5-0.8,3.9-2.3,3.9-3.9c0-0.4,0-1.3,0-2.8l-17.3-11.2L-171.9,96.9z"/>
		<path d="M-194.6,0c-79,0-143.1,64.2-143.1,143.1s64.1,143.8,143.1,143.8c78.9,0,143.1-65,143.1-143.8C-51.5,64.1-115.6,0-194.6,0z     M-194.6,270.6c-70.4,0-127.5-57.1-127.5-127.5s57.2-127.5,127.5-127.5s127.4,57,127.5,127.5C-67.1,213.5-124.2,270.6-194.6,270.6    z"/>
		<path d="M-281.3,167.2c0,65,81.2,100.2,84.4,101.7l2.3,0.8l2.5-1.5c3.9-1.5,84.4-37.5,84.4-99.3V51.6h-173.6V167.2z M-268.9,167.3    v-35.2h70.3v9.1c-1.7-0.4-5.6-1.3-10-0.6c-2.3,0-4.7,0.8-7,0.8c-4,0-7,0.8-10.2,0.8c-6.3,0-10.1,0-13.3,0h-4.7v79h4.7    c0,0,4.7,0,10.9,0c6.2,0,10.2-0.8,14.1-0.8c3.8-0.8,7-0.8,11.7-0.8c0.8,0,1.5,0.7,2.3,1.5c0.3,0.4,0.8,1,1.5,1.6v32.2    C-217.8,245-268.9,214.2-268.9,167.3z M-198.6,211.5c-1.2-0.3-2.5-0.5-3.9-0.5c-5.4,0-8.5,0-12.2,0.8c-3.9,0-7.8,0.8-13.3,0.8    c-1.6,0-4,0-5.5,0v-60.9c2.4,0,4.7,0,8.6,0c3,0,7,0,10.9-0.8c2.3,0,4.7-0.8,7-0.8c4-0.8,7.9,0,7.9,0c0.2,0.1,0.4,0.2,0.5,0.3    V211.5z M-189.2,150.4c0.3-0.2,0.6-0.3,0.9-0.3c0,0,4-0.8,7.9,0c2.3,0,4.7,0.8,7,0.8c3.9,0,7.8,0.8,10.9,0.8c3.1,0,6.3,0,8.6,0    v60.9c-1.6,0-3.2,0-5.5,0c-5.4,0-9.4-0.8-13.3-0.8c-4-0.8-7.9-0.8-12.6-0.8c-1.4,0-2.7,0.2-3.9,0.6V150.4z M-189.2,150.3v-0.2    l0.2,0C-189.1,150.2-189.1,150.2-189.2,150.3z M-118.9,169.6c0,44-51.4,75.2-70.3,85.2v-32.4c0.6-0.4,1.2-0.8,1.8-1.3    c0.8-1.5,0.8-1.5,2.3-1.5c4.7,0,7.8,0.8,11.7,0.8c3.9,0,7.9,0.8,14.1,0.8c6.2,0,10.9,0,10.9,0h4.6v-79h-4.7c-3.1,0-7.1,0-13.3,0    c-3.2,0-6.3,0-10.2-0.8c-2.3,0-4.7-0.8-7-0.8c-4.3,0-8.6,0.5-10.2,0.7v-9.2h70.3V169.6z M-268.9,64h150v57.9h-150V64z"/>
		<path d="M-255.6,70.3c0,18.7,0,28.1,0,28.9c0.9,3.2,3.2,7,7.9,10.2c5.5,3.9,14.9,9.4,14.9,9.4l1.5,0.8l2.4-0.8    c0.7,0,9.4-5.5,15.6-9.4c4.7-3.2,7-6.3,7-10.2c0-0.7,0-10.1,0-28.9v-3.9h-49.3V70.3z M-214.9,99.2c0,1.6-2.4,3.1-3.9,3.9    c-3.9,2.4-10.1,6.4-13.3,7.9c-3.2-1.7-8.7-5.6-12.6-7.9c-2.4-1.5-3.9-3.9-3.9-4.7c0-0.8,0-4.9,0-10.1h33.7    C-214.9,93.9-214.9,98.4-214.9,99.2z M-248.6,74.2h33.7c0,2.3,0,4.7,0,7.1h-33.7C-248.6,78.9-248.6,76.5-248.6,74.2z"/>
		<path d="M-179.1,70.3c0,18.7,0,28.1,0,28.9c0.9,3.2,3.2,7,7.9,10.2c5.5,3.9,14.9,9.4,14.9,9.4l1.5,0.8l2.4-0.8    c0.7,0,9.4-5.5,15.6-9.4c4.7-3.2,7-6.3,7-10.2c0-0.7,0-10.1,0-28.9v-3.9h-49.3V70.3z M-138.2,99.2c0,1.6-2.4,3.1-3.9,3.9    c-3.9,2.4-10.1,6.4-13.3,7.9c-3.2-1.7-8.7-5.6-12.6-7.9c-2.4-1.5-3.9-3.9-3.9-4.7c0-0.2,0-0.8,0-1.5l16.4-11.7l17.3,11.2    C-138.2,97.9-138.2,98.8-138.2,99.2z M-171.9,73.4L-171.9,73.4l0.1,0.8h33.6c0,4.7,0,9.8,0,14.1l-17.3-11.7l-16.4,11.5    C-171.9,83.5-171.9,78.1-171.9,73.4z"/>
		<rect x="-228.3" y="160.2" width="20.3" height="7"/>
		<rect x="-228.3" y="176.6" width="20.3" height="7"/>
		<rect x="-228.3" y="193.1" width="20.3" height="7"/>
		<rect x="-182.9" y="160.2" width="20.3" height="7"/>
		<rect x="-182.9" y="176.6" width="20.3" height="7"/>
		<rect x="-182.9" y="193.1" width="20.3" height="7"/>
	</g>
	<g id="Layer_3">
		<g>
			<path class="st1" d="M77.4,182.9c-7,4.7-19.6,7-27.4,7c-29.7,0-50-17.3-50-45.3c0-14.1,5.5-25.8,15.6-33.6     c9.4-7.9,21.8-11.7,35.9-11.7c11.7,0,22.7,3.2,28.9,5.5c-1.5,6.2-2.3,12.6-2.3,18.8h-3.9v-9.5c0-3.2-4.7-5.5-10.9-7.9     c-3.9-1.5-9.4-2.3-14.1-2.3c-23.5,0-35.9,17.3-35.9,38.3c0,25,16.4,40.6,41.4,40.6c9.4,0,19.6-3.2,25-7.9l0.8,1.5L77.4,182.9z"/>
			<path class="st1" d="M108.8,189.2c-15.6,0-26.5-12.6-26.5-28.9c0-18.8,11.7-32.1,32.1-32.1c15.6,0,28.2,12.6,28.2,28.2     c0,18.8-13.3,32.9-32.9,32.9h-0.8v-0.1H108.8z M93.9,154.8c0,13.3,4.7,30.5,21.1,30.5c11.7,0,16.4-11.7,16.4-22.7     c0-16.4-7.9-29.7-19.6-29.7C97.8,132.1,93.9,143,93.9,154.8z"/>
			<path class="st1" d="M151.7,146.1c0-3.9,0-7-0.8-7.9c-0.8-0.8-2.3-1.5-4.7-1.5h-4.7v-3.2c7-0.8,14.9-3.2,19.6-5.5l0.8,0.8v12.6     l0,0l7-7.9c3.2-3.9,7-5.5,10.2-5.5c2.3,0,4.7,0.8,5.5,1.5l-0.8,14.9h-2.3c-1.5-3.2-3.9-5.5-8.6-5.5c-5.5,0-10.9,5.5-10.9,14.1     v21.8c0,3.2,0,6.2,0.8,7s2.3,1.5,5.5,1.5h6.2v3.9c-6.2,0-11.7,0-18,0c-6.2,0-10.9,0-15.6,0v-3.9h5.5c2.3,0,3.2-0.8,3.9-1.5     c0.8-1.5,0.8-3.9,0.8-7v-28.9h0.5v0.2H151.7z"/>
			<path class="st1" d="M209.6,174.3c0,3.2,0,6.2,0.8,7s1.5,1.5,3.9,1.5h5.5v3.9c-4.7,0-9.4,0-15.6,0s-10.9,0-15.6,0v-3.9h5.5     c2.3,0,3.2-0.8,3.9-1.5c0.8-1.5,0.8-3.9,0.8-7v-28.2c0-3.9,0-7-0.8-7.9s-2.3-1.5-4.7-1.5h-3.9v-3.2c7-0.8,14.9-3.2,19.6-5.5     l0.8,0.8v10.9l0,0l9.4-7.9c3.2-2.3,5.5-3.2,10.2-3.2c14.9,0,20.3,7.9,20.3,21.8v24.2c0,3.2,0,6.2,0.8,7s1.5,1.5,3.9,1.5h5.5v3.9     c-3.2,0-7,0-10.2,0s-7,0-10.2,0v-35.2c0-10.2-6.2-15.6-14.1-15.6s-15.6,6.2-15.6,11.7L209.6,174.3L209.6,174.3z"/>
			<path class="st1" d="M312,150.8c0,1.5,0,3.2,0,5.5c-7.9,1.5-14.9,1.5-22.7,1.5h-18c0,14.9,7,25,22.7,25c6.2,0,10.9-3.2,15.6-6.2     l1.5,1.5l-2.3,3.9c-0.8,1.5-11.7,7-20.3,7c-18.8,0-28.9-11.7-28.9-28.9c0-12.6,3.2-19.6,9.4-24.2c2.3-1.5,4.7-3.9,7.9-4.7     c4.7-2.3,7.9-3.2,12.6-3.2C301.9,128.1,312,136.8,312,150.8z M271.4,151.6v1.5c5.5,0.8,10.9,0.8,15.6,0.8s9.4,0,14.1,0     c0-11.7-3.9-21.1-13.3-21.1C278.4,132.1,271.4,139.2,271.4,151.6z"/>
			<path class="st1" d="M323.7,109.4c0-3.2,0-5.5-3.2-5.5h-7v-3.1c6.2-0.8,13.3-2.3,19.6-4.7l0.8,0.8v77.4c0,3.2,0,6.2,0.8,7     s1.5,1.5,3.9,1.5h5.5v3.9c-4.7,0-9.4,0-15.6,0s-10.9,0-15.6,0v-3.9h5.5c2.3,0,3.2-0.8,3.9-1.5c0.8-1.5,0.8-3.9,0.8-7v-64.9H323.7     z"/>
			<path class="st1" d="M355.1,109.4c0-3.2,0-5.5-3.2-5.5h-7v-3.1c6.2-0.8,13.3-2.3,19.6-4.7l0.8,0.8v77.4c0,3.2,0,6.2,0.8,7     s1.5,1.5,3.9,1.5h5.5v3.9c-4.7,0-9.4,0-15.6,0c-6.2,0-10.9,0-15.6,0v-3.9h5.5c2.3,0,3.2-0.8,3.9-1.5c0.8-1.5,0.8-3.9,0.8-7v-64.9     H355.1z"/>
			<path class="st1" d="M413.7,115.7c0-4.7,0-7.9-0.8-9.4s-2.3-1.5-5.5-1.5h-6.2v-4c6.2,0,12.6,0,18.8,0c5.5,0,11.7,0,18,0v3.9h-6.2     c-3.2,0-4.7,0.8-5.5,1.5c-0.8,1.5-0.8,4.7-0.8,9.4v43c0,18,9.4,22.7,25.8,22.7c13.3,0,25.8-5.5,25.8-25.8v-39.9     c0-4.7,0-7.9-0.8-9.4s-2.3-1.5-5.5-1.5h-5.5v-3.8c4.7,0,10.2,0,14.9,0s9.4,0,14.9,0v3.9h-5.4c-3.2,0-4.7,0.8-5.5,1.5     c-0.8,1.5-0.8,4.7-0.8,9.4v35.9c0,26.5-10.2,37.6-35.2,37.6c-21.1,0-33.6-6.2-33.6-28.9v-44.6L413.7,115.7L413.7,115.7z"/>
			<path class="st1" d="M511.4,174.3c0,3.2,0,6.2,0.8,7c0.8,0.8,1.5,1.5,3.9,1.5h5.5v3.9c-4.7,0-9.4,0-15.6,0c-6.2,0-10.9,0-15.6,0     v-3.9h5.5c2.3,0,3.2-0.8,3.9-1.5c0.8-1.5,0.8-3.9,0.8-7v-28.2c0-3.9,0-7-0.8-7.9s-2.3-1.5-4.7-1.5h-4.7v-3.2     c7-0.8,14.9-3.2,19.6-5.5l0.8,0.8v10.9l0,0l9.4-7.9c3.2-2.3,5.5-3.2,10.2-3.2c14.9,0,20.3,7.9,20.3,21.8v24.2c0,3.2,0,6.2,0.8,7     c0.8,0.8,1.5,1.5,3.9,1.5h5.5v3.9c-3.2,0-7,0-10.2,0c-3.2,0-7,0-10.2,0v-35.2c0-10.2-6.2-15.6-14.1-15.6s-15.6,6.2-15.6,11.7V174     h0.6V174.3z"/>
			<path class="st1" d="M586.5,174.3c0,3.2,0,6.2,0.8,7c0.8,0.8,1.5,1.5,3.9,1.5h5.5v3.9c-4.7,0-9.4,0-15.6,0s-10.9,0-15.6,0v-3.9     h5.5c2.3,0,3.2-0.8,3.9-1.5c0.8-1.5,0.8-3.9,0.8-7v-28.2c0-3.9,0-7-0.8-7.9c-0.8-0.9-2.3-1.5-4.7-1.5h-4.7v-3.2     c7-0.8,14.9-3.2,19.6-5.5l0.8,0.8v45.4h0.6V174.3z M587.3,107.8c0,3.9-3.2,7-7,7c-3.9,0-7-3.2-7-7s3.2-7,7-7     C584.1,100.8,587.3,103.9,587.3,107.8z"/>
			<path class="st1" d="M633.4,174.3c-2.3,4.7-3.2,9.4-5.5,13.3h-6.2l-22-50.8c-0.8-1.5-1.5-3.9-3.9-3.9h-3.9v-3.2     c4.7,0,9.4,0,14.9,0c4.7,0,9.4,0,14.9,0v3.2h-6.2c-2.3,0-3.2,0.8-3.2,2.3c0,0.8,0,2.3,0.8,4.7l14.9,35.9     c2.3-5.5,5.5-11.7,7.9-17.3l5.5-13.3c1.5-3.9,2.3-7,2.3-9.4c0-2.3-0.8-3.2-3.2-3.2H635v-3.2c3.9,0,7.9,0,11.7,0     c3.8,0,7.9,0,11.7,0v3.2h-3.9c-3.2,0-5.5,4.7-7,8.6L633.4,174.3z"/>
			<path class="st1" d="M708.4,150.8c0,1.5,0,3.2,0,5.5c-7.9,1.5-14.9,1.5-22.7,1.5h-18c0,14.9,7,25,22.7,25     c6.2,0,10.9-3.2,15.6-6.2l1.5,1.5l-2.3,3.9c-0.8,1.5-11.7,7-20.3,7c-18.8,0-28.9-11.7-28.9-28.9c0-12.6,3.2-19.6,9.4-24.2     c2.3-1.5,4.7-3.9,7.9-4.7c4.7-2.3,7.9-3.2,12.6-3.2C698.3,128.1,708.4,136.8,708.4,150.8z M667,151.6v1.5     c5.5,0.8,10.9,0.8,15.6,0.8s9.4,0,14.1,0c0-11.7-3.9-21.1-13.3-21.1C674.9,132.1,667,139.2,667,151.6z"/>
			<path class="st1" d="M722.5,146.1c0-3.9,0-7-0.8-7.9c-0.8-0.8-2.3-1.5-4.7-1.5h-4.7v-3.2c7-0.8,14.9-3.2,19.6-5.5l0.8,0.8v12.6     l0,0l7-7.9c3.2-3.9,7-5.5,10.2-5.5c2.3,0,4.7,0.8,5.5,1.5l-0.8,14.9h-2.3c-1.5-3.2-3.9-5.5-8.6-5.5c-5.5,0-10.9,5.5-10.9,14.1     v21.8c0,3.2,0,6.2,0.8,7s2.3,1.5,5.5,1.5h6.2v3.9c-6.2,0-11.7,0-18,0s-10.9,0-15.6,0v-3.9h5.5c2.3,0,3.2-0.8,3.9-1.5     c0.8-1.5,0.8-3.9,0.8-7v-28.9h0.5L722.5,146.1L722.5,146.1z"/>
			<path class="st1" d="M765.5,168.9v5.5c0,7.9,8.6,10.9,16.4,10.9c7.9,0,14.9-4.7,14.9-11.7c0-3.9-2.3-7-6.2-8.6     c-5.5-1.5-12.6-3.2-18.8-4.7c-6.2-2.3-10.9-6.2-10.9-13.3c0-13.3,11.7-18,23.5-18c6.2,0,10.9,1.5,16.4,3.2     c0,4.7-0.8,9.4-0.8,14.1h-3.2v-3.2c0-6.2-7-10.2-14.9-10.2c-10.9,0-12.6,6.2-12.6,10.2c0,5.5,3.9,8.6,13.3,10.2     c14.9,2.3,21.8,6.2,21.8,15.6c0,14.1-14.1,21.1-27.4,21.1c-6.2,0-11.7-0.8-17.3-3.2c1.5-5.5,1.5-11.7,1.5-17.3h3.9v-0.8h0.4     V168.9z"/>
			<path class="st1" d="M830.4,174.3c0,3.2,0,6.2,0.8,7s1.5,1.5,3.9,1.5h5.5v3.9c-4.7,0-9.4,0-15.6,0s-10.9,0-15.6,0v-3.9h5.5     c2.3,0,3.2-0.8,3.9-1.5c0.8-1.5,0.8-3.9,0.8-7v-28.2c0-3.9,0-7-0.8-7.9s-2.3-1.5-4.7-1.5h-4.7v-3.2c7-0.8,14.9-3.2,19.6-5.5     l0.8,0.8v45.4h0.6V174.3z M832,107.8c0,3.9-3.2,7-7,7c-3.9,0-7-3.2-7-7s3.2-7,7-7C828.1,100.8,832,103.9,832,107.8z"/>
			<path class="st1" d="M839,139.9v-2.3l9.4-4.7v-8.6c0-3.2,0-6.2-0.8-10.2c4.7-1.5,8.6-3.2,10.9-4.7l1.5,1.5     c-0.8,5.5-1.5,12.6-1.5,18v4.7l17.3-0.8l-0.8,7h-15.6v32.9c0,5.5,1.5,8.6,7,8.6c3.2,0,5.5-1.5,7-2.3l1.5,2.3l-6.2,6.2     c-0.8,1.5-5.5,1.5-7.9,1.5c-6.2,0-12.6-3.2-12.6-13.3v-35.9L839,139.9z"/>
			<path class="st1" d="M926.6,139.9c0.8-1.5,0.8-2.3,0.8-3.2c0-2.3-1.5-3.2-5.5-3.2h-3.2v-3.2c3.9,0,7.9,0,11.7,0     c3.9,0,7.9,0,11.7,0v3.2h-3.2c-3.2,0-5.5,3.9-10.2,14.9l-25,58.7c-3.9,9.4-8.6,15.6-18.8,15.6c-2.3,0-4.7-0.8-6.2-1.5l3.2-9.4     h1.5c1.5,1.5,4.7,3.2,6.2,3.2l0,0c7-0.8,10.9-10.9,13.3-16.4l3.2-7.9l-20.3-50.8c-2.3-4.7-3.9-6.2-6.2-6.2h-2.3v-3.2     c4.7,0,9.4,0,14.9,0c4.7,0,9.4,0,14.9,0v3.2h-4.7c-2.3,0-3.9,0.8-3.9,3.2c0,1.5,0,3.2,0.8,4.7l14.1,34.4L926.6,139.9z"/>
		</g>
	</g>
</g>
</svg>