<svg viewBox="0 0 105 34" fill="none" xmlns="http://www.w3.org/2000/svg">
    <path
        d="M11.5308 0.851196H14.7127V1.45088H14.1135C14.0086 1.45088 13.8259 1.5719 13.5625 1.81124C13.2991 2.05057 13.1675 2.23882 13.1675 2.36252V11.5058C13.1675 11.6322 13.2991 11.815 13.5625 12.057C13.8259 12.299 14.0086 12.4201 14.1135 12.4201H14.7127V13.0171H10.0178V12.4147H10.6172C10.7219 12.4147 10.902 12.2937 11.1546 12.0517C11.4073 11.8096 11.5336 11.6268 11.5336 11.5004V2.64757L7.12081 13.2349L2.71348 2.4647V11.503C2.71348 11.6294 2.83979 11.8123 3.08972 12.0543C3.33965 12.2964 3.52239 12.4173 3.6272 12.4173H4.22381V13.0144H0.445312V12.4147H1.0446C1.17091 12.4147 1.35903 12.2937 1.61165 12.0517C1.86426 11.8096 1.98789 11.6268 1.98789 11.5004V2.36252C1.98789 2.23882 1.86157 2.05326 1.61165 1.81124C1.36172 1.56921 1.17091 1.45088 1.0446 1.45088H0.445312V0.851196H3.97119L7.62606 9.95949H7.72014L11.5308 0.851196ZM19.0905 11.7854C19.6268 11.8174 20.1612 11.6982 20.6331 11.4412C21.0246 11.173 21.3477 10.8165 21.5764 10.4005H22.0816C21.8571 11.1817 21.4274 11.8884 20.8373 12.447C20.1901 12.9842 19.363 13.2553 18.5235 13.2053C18.0244 13.2234 17.5279 13.1244 17.0738 12.9161C16.6198 12.7079 16.2207 12.3961 15.9087 12.0059C15.2539 11.1965 14.9081 10.1804 14.9331 9.13927C14.9039 8.58207 14.9861 8.02465 15.1749 7.49964C15.3636 6.97463 15.655 6.49256 16.0323 6.08166C16.3697 5.71855 16.7792 5.43003 17.2346 5.2346C17.69 5.03917 18.1812 4.94115 18.6767 4.94682C19.2154 4.93446 19.7512 5.03143 20.2515 5.23188C20.7056 5.42551 21.1215 5.69871 21.4797 6.03863L20.3321 7.84307L19.8592 7.87264C19.9665 7.33564 19.9341 6.78002 19.7651 6.25915C19.6647 6.01675 19.4859 5.81505 19.2574 5.68635C19.0289 5.55763 18.7638 5.50934 18.5047 5.5492C18.1668 5.52772 17.8292 5.5948 17.5253 5.74384C17.2213 5.89287 16.9614 6.11869 16.7713 6.39898C16.3657 7.07338 16.1684 7.85276 16.2042 8.63908C16.1816 9.45382 16.4557 10.249 16.9755 10.8765C17.2369 11.1777 17.5628 11.4159 17.929 11.5733C18.2952 11.7307 18.6924 11.8032 19.0905 11.7854ZM26.9001 13.0144H22.1434V12.4147H22.7508C22.8771 12.4147 23.0652 12.2937 23.3178 12.0517C23.5704 11.8096 23.6941 11.6268 23.6941 11.5004V2.36252C23.6941 2.23882 23.5704 2.05326 23.3178 1.81124C23.0652 1.56921 22.869 1.45088 22.7508 1.45088H22.1434V0.851196H26.9001V1.45088H26.3009C26.1745 1.45088 25.9864 1.5719 25.7338 1.81124C25.4812 2.05057 25.3575 2.23882 25.3575 2.36252V7.34289L29.7031 2.48891C29.7864 2.38403 29.7031 2.18503 29.4827 1.89191C29.2623 1.59879 29.0823 1.45088 28.9775 1.45088H28.3943V0.851196H32.8017V1.45088H32.2024C31.9064 1.55273 31.6346 1.71479 31.4042 1.92687C30.9823 2.25226 30.7324 2.4647 30.6464 2.5427L27.6902 5.724L31.9417 11.3713C32.148 11.6119 32.3857 11.8235 32.6485 12.0006C32.8595 12.1948 33.1138 12.3358 33.3902 12.412H34.2717C34.4804 12.3687 34.6692 12.2582 34.8092 12.0974C35.0403 11.8849 35.1558 11.7074 35.1558 11.5596V6.58723C35.1558 6.46083 35.0403 6.29142 34.8092 6.08166C34.6692 5.92084 34.4804 5.81033 34.2717 5.76702H33.796V5.16734H36.599V11.5649C36.599 11.7128 36.7199 11.8903 36.9618 12.1027C37.1009 12.2553 37.2809 12.3645 37.4805 12.4173H38.4587C38.5635 12.4173 38.7274 12.3125 38.9612 12.1027C39.195 11.893 39.3079 11.7128 39.3079 11.5649V6.58723C39.3079 6.46083 39.1923 6.29142 38.9612 6.08166C38.7301 5.8719 38.5635 5.76702 38.4587 5.76702H37.9534V5.16734H40.442L40.7564 6.7674C41.1837 6.31589 41.6416 5.89448 42.127 5.50618C42.6199 5.13535 43.2253 4.94545 43.8415 4.96834C44.1309 4.96309 44.4184 5.01635 44.6867 5.12495C44.9549 5.23354 45.1986 5.39522 45.4029 5.6003C45.618 5.81364 45.7864 6.0694 45.8974 6.35133C46.0085 6.63326 46.0597 6.93521 46.0479 7.23801V11.5649C46.0479 11.7128 46.1634 11.8903 46.3946 12.1027C46.6257 12.3152 46.7923 12.4173 46.8972 12.4173H47.4023V13.0144H43.2772V12.4147H43.7125C43.9211 12.3708 44.1097 12.2604 44.25 12.1001C44.4811 11.8876 44.5967 11.7101 44.5967 11.5622V7.34289C44.612 6.98988 44.4994 6.64322 44.2796 6.36671C44.1617 6.23574 44.0154 6.13348 43.8518 6.06776C43.6884 6.00204 43.512 5.9746 43.3363 5.98754C42.7133 6.00653 42.1123 6.22207 41.6191 6.60336C41.044 7.01212 40.7564 7.35364 40.7564 7.62794V11.5649C40.7564 11.7128 40.872 11.8903 41.1031 12.1027C41.2431 12.2636 41.4319 12.3741 41.6406 12.4173H42.0813V13.0144H30.813L26.5857 6.93413L25.3575 8.25719V11.503C25.3575 11.6294 25.4812 11.8123 25.7338 12.0543C25.9864 12.2964 26.1745 12.4173 26.3009 12.4173H26.9001V13.0144ZM31.1194 26.7292L31.0818 26.6916C31.4822 27.0277 31.8879 27.3639 32.2964 27.7C32.7049 28.0361 33.1403 28.3616 33.6025 28.6789H34.3254V29.3081H33.0033C32.4649 29.3172 31.9301 29.2214 31.4284 29.0258C30.8926 28.7858 30.4025 28.4546 29.9799 28.0469C29.5032 28.5273 28.9285 28.8988 28.2949 29.136C27.5619 29.3911 26.7892 29.5132 26.0133 29.4964C25.0271 29.5016 24.0724 29.149 23.3259 28.504C22.9396 28.1922 22.6304 27.7952 22.4225 27.3442C22.2146 26.8932 22.1136 26.4001 22.1273 25.9037C22.1194 25.1651 22.3046 24.4373 22.6648 23.7927C23.0141 23.1733 23.5039 22.6446 24.0945 22.249C23.8119 21.89 23.5737 21.4981 23.385 21.0819C23.1989 20.6444 23.1073 20.1724 23.1163 19.697C23.0938 19.3264 23.1523 18.9554 23.2879 18.6099C23.4234 18.2643 23.6326 17.9525 23.901 17.6963C24.5012 17.1961 25.2685 16.9425 26.0482 16.9863C26.4974 16.9712 26.9459 17.0349 27.3731 17.1745C27.6534 17.2899 27.9518 17.3545 28.2546 17.3655C28.371 17.3684 28.4873 17.3575 28.6013 17.3332C28.6966 17.3019 28.7758 17.2343 28.8216 17.145H29.3591V20.0117H28.8216C28.7382 19.4197 28.4535 18.8746 28.0154 18.468C27.7712 18.1762 27.465 17.9427 27.1191 17.7845C26.7732 17.6263 26.3963 17.5475 26.016 17.5537C25.4636 17.5233 24.9177 17.6848 24.4707 18.0109C24.2832 18.1642 24.1341 18.3593 24.0357 18.5807C23.9372 18.8021 23.8919 19.0435 23.9037 19.2856C23.9005 19.7597 24.0685 20.2189 24.3767 20.579C24.7158 20.9747 25.1494 21.2781 25.6371 21.4611C26.4128 22.3037 27.2522 23.149 28.1552 23.997C29.0581 24.845 29.919 25.6383 30.7378 26.377C30.9618 26.0174 31.127 25.6243 31.2269 25.2125C31.3253 24.7712 31.3731 24.3201 31.3693 23.8679C31.3802 23.6251 31.3394 23.3828 31.2495 23.157C31.1596 22.9311 31.0227 22.727 30.8479 22.5583C30.4631 22.2186 29.9603 22.0437 29.4478 22.0715V21.4611H33.7691V22.0285H33.2988C33.194 22.0285 32.9871 22.206 32.6834 22.5663C32.4571 22.7784 32.2982 23.0524 32.2266 23.3543V23.3865C32.2058 23.9918 32.0999 24.5911 31.9122 25.1668C31.7316 25.7244 31.464 26.2499 31.1194 26.7238V26.7292ZM26.9942 28.5578C27.4912 28.5646 27.9859 28.4901 28.4588 28.3374C28.8783 28.1965 29.2757 27.9964 29.6386 27.743L29.5445 27.6812C28.6488 26.8816 27.7672 26.0623 26.9001 25.2233C26.033 24.3843 25.1928 23.5013 24.3794 22.5744C24.0791 22.8893 23.8346 23.253 23.6564 23.6501C23.469 24.1311 23.383 24.6456 23.4038 25.1614C23.416 25.6124 23.525 26.0555 23.7234 26.4606C23.9219 26.8656 24.2052 27.2233 24.554 27.5091C25.2034 28.1571 26.0774 28.5297 26.9942 28.5498V28.5578ZM35.7175 3.24726H35.6853C35.4212 3.24964 35.1671 3.14713 34.9785 2.96221C34.8816 2.87485 34.8046 2.76771 34.7527 2.64801C34.7008 2.52832 34.6751 2.39886 34.6775 2.2684V2.23882C34.6698 2.10054 34.6928 1.96229 34.7449 1.83397C34.7969 1.70564 34.8767 1.59043 34.9785 1.4966C35.1863 1.3243 35.4476 1.23002 35.7175 1.23002C35.9873 1.23002 36.2487 1.3243 36.4566 1.4966C36.5583 1.59043 36.6381 1.70564 36.6902 1.83397C36.7422 1.96229 36.7652 2.10054 36.7575 2.23882H36.7253C36.7468 2.23882 36.7575 2.23882 36.7575 2.2684C36.7599 2.39886 36.7343 2.52832 36.6824 2.64801C36.6304 2.76771 36.5534 2.87485 36.4566 2.96221C36.2774 3.14313 36.0338 3.24563 35.7793 3.24726H35.7175ZM43.7125 28.488C44.5767 28.5378 45.435 28.3179 46.1688 27.8587C46.8043 27.38 47.312 26.7519 47.6469 26.03H48.2811C47.9333 27.0537 47.2852 27.9487 46.4215 28.5982C45.5331 29.2345 44.4606 29.5614 43.3686 29.5287C42.5727 29.5572 41.781 29.4023 41.0546 29.0759C40.3281 28.7495 39.6863 28.2603 39.1789 27.6463C38.1266 26.3901 37.5669 24.7939 37.6041 23.1553C37.5616 21.5608 38.0736 20.0011 39.0526 18.7424C39.5277 18.1436 40.1377 17.666 40.8328 17.3486C41.5279 17.0312 42.2881 16.8831 43.0514 16.9164C43.6203 16.9034 44.1868 16.9945 44.723 17.1853C45.174 17.3633 45.6545 17.4546 46.1393 17.4542C46.2904 17.4616 46.4413 17.434 46.58 17.3736C46.697 17.3135 46.8033 17.2344 46.8944 17.1396H47.3351V21.4288H46.7977C46.7068 20.5633 46.3681 19.7425 45.8221 19.065C45.5306 18.6155 45.1282 18.249 44.6536 18.0007C44.179 17.7524 43.6485 17.6309 43.1133 17.6478C42.6568 17.6236 42.2003 17.6937 41.7721 17.8537C41.344 18.0138 40.9534 18.2605 40.6247 18.5783C39.9303 19.4147 39.55 20.4678 39.5498 21.5552V21.4933C39.5282 21.7246 39.5121 21.9559 39.5014 22.1872C39.5014 22.4185 39.4853 22.6578 39.4853 22.9106C39.4853 23.2037 39.4853 23.5049 39.5175 23.8087C39.5498 24.1126 39.5605 24.3923 39.5793 24.6451C39.6631 25.6675 40.0969 26.6297 40.8075 27.3693C41.186 27.7494 41.6404 28.0455 42.1409 28.2382C42.6414 28.431 43.177 28.516 43.7125 28.488ZM53.6559 10.8093C53.6746 11.1374 53.6207 11.4656 53.4981 11.7705C53.3754 12.0755 53.1871 12.3496 52.9464 12.5734C52.4445 13.006 51.7971 13.2319 51.1352 13.2053C50.7029 13.2184 50.2729 13.1377 49.8748 12.9687C49.5607 12.8155 49.2163 12.7346 48.867 12.732C48.747 12.7204 48.6263 12.7477 48.523 12.81L48.2704 13.0144H47.9049V10.2418H48.3779C48.4656 10.7822 48.7248 11.28 49.1169 11.6617C49.3661 11.9538 49.6787 12.1851 50.0308 12.3379C50.3828 12.4909 50.7652 12.5612 51.1486 12.5438C51.5425 12.5643 51.9347 12.4769 52.2826 12.291C52.4168 12.2055 52.5254 12.0855 52.5973 11.9436C52.6692 11.8017 52.7016 11.643 52.6911 11.4842C52.7055 11.295 52.6678 11.1054 52.582 10.9362C52.4963 10.7669 52.3658 10.6244 52.2048 10.5242C51.8863 10.3282 51.555 10.1539 51.2131 10.0025C50.9175 9.87882 50.6514 9.76318 50.4069 9.65828C50.1623 9.55338 49.8855 9.43774 49.5711 9.31136C49.1261 9.10564 48.7212 8.82247 48.3752 8.47506C48.2138 8.29939 48.0889 8.09339 48.0077 7.86904C47.9265 7.64468 47.8907 7.40642 47.9022 7.16809C47.8826 6.86924 47.9289 6.56972 48.0381 6.29084C48.1473 6.01196 48.3165 5.76058 48.5337 5.55458C48.9378 5.26795 49.4067 5.08619 49.8982 5.02564C50.3898 4.9651 50.8887 5.02764 51.3502 5.20767C51.62 5.34196 51.9168 5.41279 52.2182 5.41474C52.3102 5.41774 52.4017 5.40124 52.4869 5.36633C52.5648 5.33173 52.627 5.26944 52.6616 5.19154H53.0701V7.6118H52.5971C52.5207 7.13377 52.2949 6.69224 51.9522 6.35058C51.7417 6.09303 51.4744 5.88784 51.1713 5.75112C50.8682 5.6144 50.5375 5.54988 50.2053 5.56265C49.841 5.53282 49.478 5.63388 49.1814 5.8477C49.0751 5.93531 48.9901 6.04597 48.9329 6.17129C48.8756 6.29661 48.8476 6.43333 48.8509 6.57109C48.8411 6.71598 48.8677 6.861 48.9283 6.99297C48.9888 7.12494 49.0814 7.23968 49.1975 7.32675C49.4954 7.53374 49.811 7.71373 50.1408 7.86459C50.4364 7.98828 50.7133 8.10392 50.9766 8.20882L51.8419 8.55574C52.2936 8.74566 52.7091 9.01219 53.0701 9.34366C53.2693 9.52881 53.4261 9.75503 53.5295 10.0066C53.633 10.2582 53.6807 10.5293 53.6694 10.8012L53.6559 10.8093ZM55.7172 22.3431C56.1178 22.7344 56.4304 23.2066 56.6343 23.7283C56.8382 24.2499 56.9287 24.8091 56.8997 25.3685C56.9282 25.9303 56.8376 26.4917 56.6338 27.0159C56.43 27.5401 56.1176 28.0152 55.7172 28.41C54.9937 29.1291 54.0146 29.5314 52.9949 29.5287C51.9639 29.5362 50.9721 29.1338 50.2376 28.41C49.8376 28.0149 49.5258 27.5397 49.3224 27.0155C49.1191 26.4913 49.0289 25.9301 49.0578 25.3685C49.0276 24.8344 49.1073 24.2998 49.292 23.7978C49.4768 23.2958 49.7625 22.8371 50.1316 22.4501C50.5007 22.063 50.9452 21.756 51.4378 21.548C51.9303 21.3399 52.4603 21.2353 52.9949 21.2406C54.0163 21.2332 54.9994 21.6294 55.7306 22.3431H55.7172ZM55.3383 26.6674V26.7292C55.3598 26.4979 55.3732 26.2667 55.3839 26.0354C55.3947 25.8042 55.4001 25.5729 55.4001 25.3416C55.4001 25.1103 55.4001 24.8871 55.3839 24.6666C55.3679 24.4461 55.3598 24.239 55.3383 24.0508C55.2893 23.4755 55.0511 22.9326 54.661 22.5072C54.4388 22.3049 54.1775 22.1501 53.8932 22.0526C53.609 21.955 53.3079 21.9166 53.0083 21.9398C52.715 21.919 52.4206 21.9586 52.1433 22.0562C51.8659 22.1538 51.6116 22.3073 51.3959 22.5072C51.01 22.9227 50.772 23.4539 50.7186 24.0185V23.9782C50.6768 24.1965 50.6508 24.4176 50.6407 24.6397C50.6407 24.871 50.6246 25.1023 50.6246 25.3309C50.6246 25.5594 50.6246 25.788 50.6407 26.0085C50.6501 26.2155 50.6761 26.4215 50.7186 26.6243C50.7809 27.1866 51.0178 27.7151 51.3959 28.1356C51.6069 28.3442 51.8597 28.5055 52.1377 28.6089C52.4156 28.7123 52.7124 28.7554 53.0083 28.7353C53.3119 28.762 53.6177 28.7237 53.9055 28.6231C54.1931 28.5226 54.4562 28.3619 54.6772 28.1518C55.0452 27.737 55.2762 27.2185 55.3383 26.6674ZM57.9208 13.2214C57.4239 13.2309 56.9315 13.1265 56.4811 12.9163C56.0307 12.7061 55.6342 12.3956 55.3221 12.0086C54.6412 11.2036 54.2772 10.1776 54.2982 9.12312C54.2657 8.04206 54.6364 6.98757 55.3383 6.16503C55.6498 5.78453 56.045 5.48121 56.4929 5.27875C56.941 5.0763 57.4296 4.98019 57.9208 4.99792C58.3022 4.97665 58.6836 5.03768 59.0392 5.17688C59.3949 5.31608 59.7164 5.53018 59.9821 5.80468C60.4754 6.33272 60.7617 7.0212 60.7883 7.74358L60.8205 8.31098L55.5909 8.73049C55.6014 9.48584 55.8666 10.2155 56.3434 10.8012C56.5829 11.1231 56.8973 11.3817 57.2593 11.5546C57.6212 11.7276 58.0199 11.8095 58.4207 11.7935C58.962 11.8239 59.5013 11.7048 59.9794 11.4493C60.3689 11.1952 60.6885 10.8476 60.9093 10.4381H61.3822C61.1821 11.2152 60.7666 11.92 60.1836 12.4711C59.5493 12.9933 58.7408 13.2556 57.9208 13.2053V13.2214ZM57.8886 5.59492C57.5451 5.56623 57.2001 5.6281 56.888 5.77437C56.5759 5.92063 56.3074 6.14619 56.1096 6.42856C55.7549 6.9458 55.5528 7.55247 55.5264 8.17926L59.4634 7.84307C59.5308 7.31579 59.4709 6.78002 59.2887 6.28066C59.1168 5.81453 58.6501 5.58057 57.8886 5.57878V5.59492ZM67.3994 28.7219C67.5257 28.7219 67.6976 28.6117 67.918 28.3911C68.1384 28.1706 68.2486 27.9985 68.2486 27.8721V23.5694C68.2628 23.2336 68.157 22.9038 67.9502 22.639C67.8283 22.5096 67.6786 22.4097 67.5123 22.3468C67.3461 22.2839 67.1678 22.2597 66.9909 22.2759C66.4332 22.2945 65.8966 22.4936 65.4617 22.8433C64.9475 23.2234 64.6904 23.539 64.6904 23.7899V27.8855C64.6904 28.0119 64.8006 28.1841 65.021 28.4046C65.2413 28.6251 65.4053 28.7353 65.5101 28.7353H65.983V29.335H61.9519V28.7353H62.3927C62.519 28.7353 62.691 28.6251 62.9114 28.4046C63.1317 28.1841 63.242 28.0119 63.242 27.8855V23.5829C63.2592 23.2342 63.1472 22.8913 62.9275 22.6201C62.8066 22.4933 62.6589 22.3949 62.4953 22.3321C62.3317 22.2693 62.1563 22.2437 61.9815 22.2571C61.4093 22.2759 60.8602 22.4871 60.4229 22.8568C59.9086 23.2548 59.6516 23.5909 59.6516 23.8653V27.899C59.6516 28.0254 59.7617 28.1975 59.9821 28.418C60.2025 28.6386 60.3771 28.7488 60.5035 28.7488H60.9442V29.3485H56.9131V28.7488H57.386C57.4909 28.7488 57.6548 28.6386 57.8725 28.418C58.0902 28.1975 58.203 28.0254 58.203 27.899V22.8783C58.203 22.7546 58.0929 22.5852 57.8725 22.3754C57.6521 22.1657 57.4909 22.0608 57.386 22.0608H56.9131V21.4611H59.3318L59.6462 22.9751C60.1084 22.4911 60.5285 22.0859 60.9066 21.7596C61.3673 21.4071 61.9404 21.2341 62.5191 21.2729C63.0138 21.2629 63.4989 21.4118 63.903 21.6977C64.1042 21.8431 64.2726 22.0289 64.3976 22.2434C64.5226 22.4578 64.6013 22.6961 64.6286 22.9429C65.1097 22.4803 65.5531 22.0904 65.9508 21.7757C66.4063 21.4426 66.9621 21.2755 67.5257 21.3024C68.0962 21.2884 68.6496 21.4978 69.0682 21.886C69.2851 22.1014 69.4536 22.3605 69.5625 22.6462C69.6714 22.9318 69.7182 23.2373 69.6997 23.5426V27.8452C69.6997 27.9716 69.81 28.1437 70.0303 28.3643C70.2507 28.5847 70.412 28.695 70.5167 28.695H70.9899V29.2947H66.9586V28.695L67.3994 28.7219ZM62.1401 6.67059C62.0087 6.46484 61.8433 6.28296 61.651 6.13275C61.3822 5.90149 61.2049 5.78585 61.1135 5.78585H60.7668V5.16734H65.0183V5.76702H64.5157C64.4109 5.76702 64.2739 5.8719 64.1072 6.08166C63.9664 6.22837 63.8777 6.41735 63.8546 6.6195L65.7358 10.4946L67.4692 6.64908C67.4701 6.54342 67.4496 6.43867 67.409 6.34115C67.3683 6.24364 67.3084 6.15537 67.2327 6.08166C67.0536 5.8719 66.9111 5.76702 66.8054 5.76702H66.2868V5.16734H69.4687V5.76702H69.122C69.0171 5.76702 68.8532 5.87728 68.6329 6.09779C68.46 6.25509 68.3162 6.44172 68.2083 6.64908L65.5208 12.3528L63.2097 16.798L62.5244 16.4484L64.9162 12.1296L62.1401 6.67059ZM76.4075 21.2621C76.847 21.2448 77.2837 21.3363 77.6783 21.5287C78.0736 21.7211 78.4155 22.0083 78.6732 22.3647C79.249 23.218 79.5319 24.2354 79.4793 25.2636C79.5214 26.3459 79.1998 27.4112 78.5658 28.2889C78.3039 28.6634 77.9549 28.9682 77.5491 29.1772C77.1426 29.3862 76.6918 29.493 76.2355 29.4883C75.6583 29.5176 75.0847 29.3803 74.5826 29.093C74.1389 28.7925 73.7759 28.387 73.5267 27.9124V31.6934C73.5267 31.8414 73.6425 32.0189 73.8735 32.2313C74.1045 32.4437 74.2737 32.5459 74.3783 32.5459H74.8867V33.1214H70.7371V32.5217H71.2427C71.4456 32.4788 71.6288 32.3678 71.7608 32.2071C71.9363 32.0771 72.055 31.8845 72.0915 31.6692V22.8783C72.0915 22.7546 71.9813 22.5852 71.7608 22.3754C71.6288 22.2147 71.4456 22.1037 71.2427 22.0608H70.7371V21.4288H73.2872L73.54 23.0693C73.8272 22.5161 74.2428 22.0402 74.7519 21.6816C75.249 21.3754 75.8247 21.222 76.4075 21.2406V21.2621ZM77.9823 26.5571V26.5867L78.0441 25.9574C78.0659 25.7483 78.0764 25.5383 78.0764 25.3281C78.0764 25.1439 78.0659 24.9598 78.0441 24.7769C78.0224 24.5967 78.0013 24.4246 77.9823 24.2551C77.9311 23.7036 77.7099 23.1814 77.3511 22.76C77.1784 22.5792 76.9692 22.4376 76.7375 22.3447C76.5058 22.252 76.2565 22.2101 76.0073 22.2221C75.7166 22.2099 75.4266 22.258 75.1556 22.3636C74.8846 22.4691 74.6381 22.6297 74.4324 22.8353C74.0217 23.2674 73.7197 23.7909 73.5505 24.3627V26.4119C73.5477 26.7058 73.6046 26.9973 73.7183 27.2683C73.8321 27.5394 73.9999 27.7842 74.2119 27.9878C74.4212 28.2026 74.6725 28.3721 74.9499 28.4859C75.2272 28.5997 75.5249 28.6553 75.8247 28.6493H75.8563C76.1357 28.6707 76.4166 28.6294 76.6778 28.5284C76.939 28.4274 77.1742 28.2694 77.3673 28.0657C77.719 27.6281 77.9332 27.0954 77.9823 26.5356V26.5571ZM95.7755 27.8802C95.7755 28.0066 95.8914 28.1787 96.1224 28.3992C96.3534 28.6197 96.5198 28.73 96.6251 28.73H97.0976V29.3297H92.9727V28.73H93.4297C93.5372 28.73 93.698 28.6197 93.9346 28.3992C94.1712 28.1787 94.2814 28.0066 94.2814 27.8802V23.6044C94.2927 23.26 94.1873 22.9218 93.983 22.6443C93.8714 22.5087 93.7282 22.402 93.5667 22.3332C93.4045 22.2643 93.2289 22.2355 93.0534 22.249C92.4285 22.2695 91.8261 22.49 91.336 22.8783C90.7575 23.3014 90.4689 23.6376 90.471 23.8867V27.8587C90.471 28.0066 90.5862 28.1841 90.8172 28.3965C90.9576 28.5573 91.1464 28.6678 91.355 28.7112H91.817V29.3109H85.1307L84.9102 27.6731C84.5795 28.1087 84.2109 28.5146 83.8085 28.8859C83.3999 29.2706 82.8565 29.4801 82.2955 29.4695C82.0315 29.4714 81.7689 29.4192 81.5252 29.316C81.2823 29.2129 81.0618 29.061 80.8793 28.8698C80.6792 28.6671 80.5233 28.4256 80.4201 28.1601C80.3169 27.8947 80.2691 27.6108 80.2804 27.3262C80.2502 26.992 80.3155 26.6561 80.4686 26.3577C80.6216 26.0592 80.8561 25.8103 81.1454 25.6401C81.672 25.3351 82.2393 25.107 82.8305 24.9624L84.8779 24.5509L84.9102 23.6071C84.9341 23.1313 84.7768 22.6643 84.4699 22.3002C84.2656 22.1178 84.0255 21.9801 83.765 21.8959C83.5045 21.8116 83.2293 21.7826 82.9569 21.8107C82.6922 21.779 82.4247 21.8209 82.1824 21.932C81.9409 22.043 81.7345 22.2188 81.5863 22.4399C81.4684 22.7001 81.4143 22.9847 81.4284 23.2699C81.4424 23.5552 81.5238 23.833 81.6671 24.0804H81.0998L80.0248 22.5045C80.4552 22.0808 80.9685 21.7502 81.5316 21.5332C82.0954 21.3163 82.6978 21.2176 83.3009 21.2432C84.0718 21.2169 84.8322 21.4322 85.4747 21.8591C85.7612 22.056 85.9929 22.3229 86.1473 22.6345C86.3011 22.9461 86.3734 23.292 86.3566 23.6393V27.8614C86.3566 27.9878 86.4717 28.1545 86.7027 28.3643C86.9344 28.574 87.1008 28.6815 87.2054 28.6815H88.1512C88.3604 28.6381 88.55 28.5265 88.689 28.3643C88.92 28.1545 89.0359 27.9878 89.0359 27.8614V22.8783C89.0359 22.7546 88.92 22.5852 88.689 22.3754C88.5493 22.2146 88.3604 22.1041 88.1512 22.0608H87.6787V21.4288H90.167L90.4815 23.0693C90.9028 22.621 91.3515 22.1998 91.8254 21.808C92.3218 21.4318 92.934 21.2415 93.5561 21.2701C93.8447 21.2649 94.1312 21.318 94.3994 21.4261C94.6669 21.5342 94.9105 21.6952 95.1148 21.8995C95.3304 22.1128 95.4996 22.3688 95.6112 22.6513C95.7229 22.9337 95.7741 23.2364 95.7622 23.5398L95.7755 27.8802ZM84.9102 25.0861L83.0292 25.5594C82.6255 25.6251 82.2576 25.8307 81.9893 26.1403C81.7942 26.4227 81.6945 26.76 81.7043 27.103V27.1326C81.7022 27.2931 81.7317 27.4525 81.7906 27.6016C81.8503 27.7507 81.9388 27.8865 82.0511 28.0012C82.16 28.1179 82.292 28.2103 82.4387 28.2725C82.5855 28.3345 82.7434 28.365 82.9028 28.3616H82.9484C83.3704 28.3445 83.7727 28.1777 84.0831 27.8909C84.4025 27.6351 84.675 27.3257 84.8891 26.9766L84.9102 25.0861ZM104.94 21.4611V22.0608H104.561C104.478 22.0608 104.325 22.171 104.104 22.3916C103.937 22.5511 103.784 22.7247 103.647 22.9106L101.003 28.6466L98.6402 33.0596L97.9795 32.7126L100.341 28.3938L97.5709 22.9429C97.4389 22.7378 97.2732 22.556 97.0815 22.405C96.8133 22.1738 96.6462 22.0581 96.5633 22.0581H96.1842V21.4611H100.436V22.0608H99.9623C99.8577 22.0608 99.7152 22.1657 99.5382 22.3754C99.3901 22.5193 99.296 22.7088 99.2693 22.9132L101.15 26.7911L102.892 22.9025C102.892 22.8013 102.871 22.7012 102.83 22.6086C102.79 22.516 102.73 22.4329 102.656 22.3647C102.478 22.1549 102.335 22.0501 102.231 22.0501H101.728V21.4611H104.94Z"
        fill="#051C2C" />
</svg>