<svg xmlns:xlink="http://www.w3.org/1999/xlink" xmlns="http://www.w3.org/2000/svg" width="112" height="24" viewBox="0 0 112 24" fill="none">
<path d="M29.5475 23.5756C25.5771 23.5756 25.2617 20.5494 25.2617 19.6583C25.2617 18.6001 25.5029 16.6321 28.0818 15.6853C30.6607 14.7384 31.2173 14.627 33.054 14.0515V13.6059C33.054 12.7148 33.054 12.5477 32.85 11.9722C32.5345 10.9511 31.5327 10.2642 30.1412 10.2642C28.8239 10.2642 27.6922 11.0068 27.1727 12.1021L26.4305 11.6566C26.8758 10.0228 28.5642 8.38904 31.4585 8.38904C33.4622 8.38904 34.8537 8.96457 35.67 10.227C36.2823 11.2481 36.3565 12.622 36.3565 14.0144C36.3565 15.2768 36.2823 16.6692 36.2823 17.8017C36.2823 18.5444 36.2081 19.2684 36.2081 19.6769C36.2081 20.698 36.4122 21.5148 37.2285 21.5148C37.5996 21.5148 37.6738 21.3849 37.9706 21.1992L38.4159 21.7748C37.6738 22.7959 36.7832 23.6127 35.3175 23.6127C34.1858 23.6127 33.3694 23.0372 33.0355 22.1089C32.5717 22.7587 31.3657 23.5756 29.5475 23.5756ZM33.054 15.8709C31.1059 16.4465 30.4009 16.7621 29.8443 17.0591C28.9538 17.5047 28.5827 18.3216 28.5827 19.3798C28.5827 20.1967 28.8981 21.5148 30.7905 21.5148C31.4028 21.5148 32.2934 21.3849 33.1097 20.8279V15.8524H33.054V15.8709ZM0.270498 22.7959C0.270498 21.3292 0.270498 20.0853 0.140625 18.5815H1.03118C1.03118 19.5283 1.27237 20.2153 1.71765 20.6608C2.32991 21.3478 3.79561 21.7933 5.11289 21.7933C7.87732 21.7933 9.1946 20.7351 9.1946 18.4515C9.1946 16.5022 8.00719 15.6853 6.37451 14.5342L6.13332 14.33L4.37076 13.1418C1.92173 11.508 0.660115 10.2456 0.660115 7.66498C0.660115 6.40253 1.16105 2.24386 7.26506 2.24386C8.84209 2.24386 10.8458 2.44808 12.0518 2.61517C12.0518 2.81939 11.9776 3.74767 11.9776 4.56455C11.9776 5.51139 11.9776 5.75274 12.0518 6.88523H11.3097C11.3097 5.86413 10.9943 5.25147 10.5675 4.8059C9.99239 4.23037 8.69366 3.91475 7.30217 3.91475C4.0368 3.91475 3.66574 5.54852 3.66574 6.81097C3.66574 8.519 4.55629 9.13166 6.48583 10.3941L8.69366 11.8608C10.5675 13.1232 12.3301 14.3114 12.3301 17.4676C12.3301 22.7587 7.35783 23.3157 5.27987 23.3157C3.36889 23.5756 1.77331 23.2971 0.270498 22.7959ZM39.7889 9.33588C40.531 9.41014 41.6627 9.33588 42.7574 9.13166C43.7036 8.92744 44.019 8.81605 44.7055 8.519L45.0209 8.72322V9.85571C45.763 9.28018 47.2287 8.4633 49.3067 8.4633C51.9598 8.4633 53.6667 9.72575 54.1491 11.935C54.2789 12.5106 54.3531 13.8102 54.3531 14.5899V18.8785C54.3531 21.2735 54.483 21.979 54.9283 22.406C55.1695 22.6102 55.6704 22.8516 56.394 22.8516V23.5385C55.4478 23.4642 53.7409 23.4085 52.7576 23.4085C51.4403 23.4085 49.9375 23.4828 49.1211 23.5385V22.8516C49.8633 22.7773 50.3085 22.5359 50.5868 22.3503C51.0321 21.9047 51.0878 21.0878 51.162 19.2499C51.162 18.6743 51.2362 17.5418 51.2362 16.7249C51.2362 15.6667 51.2362 14.5157 51.1063 13.3832C50.9022 11.508 49.9189 10.6169 48.0079 10.6169C46.6907 10.6169 45.8743 10.9325 45.2435 11.2296V18.9157C45.2435 21.3106 45.3734 22.0161 45.8187 22.4431C46.0598 22.6473 46.635 22.8887 47.2101 22.8887V23.5756C46.0227 23.5014 44.557 23.4457 43.6294 23.4457C41.6813 23.4457 41.0505 23.5199 39.9187 23.5756V22.8516C40.531 22.8516 41.1803 22.6102 41.4958 22.2389C41.941 21.7376 41.9967 20.4752 41.9967 18.0245V13.6616C41.9967 11.8237 41.9225 11.081 41.6813 10.6912C41.4772 10.3755 40.9948 10.1156 39.9744 10.1156V9.29875H39.8445V9.33588H39.7889ZM57.9896 22.7587C58.6018 22.7587 59.2512 22.5545 59.5666 22.1461C60.0119 21.6448 60.0675 20.3824 60.0675 17.9317V10.5983H58.1937V9.78145C59.01 9.46584 59.6965 9.09453 60.0675 8.76035C60.0675 7.4422 60.1417 5.78987 60.3087 4.84303C60.8839 1.81685 62.832 0.313049 66.153 0.313049C67.6187 0.313049 68.9731 0.814317 69.8636 1.50124L69.9378 1.81685L68.4721 3.82193H68.1011C67.6001 2.63374 66.8395 1.94681 65.5222 1.94681C65.0769 1.94681 64.4646 2.07677 64.0565 2.44808C63.4442 3.06074 63.3143 4.02615 63.3143 5.91983V8.74178H66.5797V10.5798H63.3143V18.7115C63.3143 20.6608 63.3886 21.6077 63.6297 21.979C64.0008 22.5916 65.3366 22.6659 65.9489 22.6659V23.4085C64.8914 23.3343 63.1845 23.2786 61.9785 23.2786C60.1417 23.2786 58.9543 23.3528 58.0081 23.4085L57.9896 22.7587ZM74.8544 23.687C70.4017 23.687 67.7486 20.9207 67.7486 16.2608C67.7486 12.622 69.6967 8.38904 75.1699 8.38904C79.6226 8.38904 82.2757 11.1553 82.2757 15.8152C82.2757 19.4541 80.3091 23.687 74.8544 23.687ZM75.04 10.0785C74.1494 10.0785 73.463 10.3198 72.962 10.7654C71.7746 11.7865 71.1995 13.5317 71.1995 16.1123C71.1995 17.1334 71.4035 22.0347 74.9843 22.0347C75.8749 22.0347 76.5613 21.7933 77.0623 21.3478C78.2497 20.3267 78.8248 18.5815 78.8248 16.0009C78.8063 14.9984 78.6393 10.0785 75.04 10.0785ZM83.7785 9.26162C84.799 9.33588 85.8565 9.18736 86.9883 9.02027C87.8788 8.89031 88.454 8.70465 88.7508 8.519L88.992 8.64896V9.91141C89.6785 9.22449 90.8288 8.519 92.3872 8.519C93.519 8.519 94.2611 8.83461 94.9661 9.41014V9.85571L93.7045 12.1393H93.0923C92.7212 11.4523 91.9605 10.8211 90.6432 10.8211C90.031 10.8211 89.5115 10.9511 89.0662 11.2667V18.7672C89.0662 20.7165 89.1404 21.5891 89.3816 21.979C89.7527 22.5916 91.0143 22.6659 91.7008 22.5916V23.4085C90.6803 23.3343 88.9363 23.2786 87.7304 23.2786C86.3389 23.2786 84.9103 23.2786 83.76 23.4085V22.6659C84.5763 22.5916 85.0216 22.4246 85.337 22.0532C85.7823 21.552 85.838 20.3452 85.838 17.8389V13.7545C85.838 11.9165 85.838 11.1739 85.5226 10.784C85.2814 10.4684 84.7804 10.2827 83.8157 10.2827V9.33588L83.7785 9.26162ZM104.373 1.20419C105.263 1.20419 106.376 0.999972 107.842 0.75862C108.658 0.628662 109.159 0.443007 109.419 0.38731L109.66 0.517268C109.53 1.70546 109.53 4.43459 109.53 6.3654V18.3216C109.53 20.0853 109.53 21.2178 109.772 21.5891C110.013 21.9047 110.514 22.1646 111.479 22.1646V22.9073C110.532 22.9073 109.475 23.0372 108.343 23.2229C107.601 23.3528 107.026 23.4642 106.71 23.5942L106.339 23.4642V22.2018C105.597 22.7773 104.206 23.5942 102.258 23.5942C98.2315 23.5942 95.6526 20.8279 95.6526 16.4836C95.6526 15.0169 95.8938 13.7173 96.3947 12.5106C97.6564 9.85571 100.18 8.35191 103.371 8.35191C104.558 8.35191 105.579 8.48187 106.191 8.59326V5.49282C106.191 3.65484 106.191 2.72656 105.875 2.28099C105.671 1.96538 105.375 1.83542 104.298 1.77972V1.18563H104.373V1.20419ZM103.853 21.5334C104.874 21.5334 105.56 21.4035 106.246 20.9579V11.1553C106.005 10.9139 105.115 10.1342 103.352 10.1342C100.532 10.1342 99.1406 12.0836 99.1406 16.1308C99.085 17.8203 99.5859 21.5334 103.853 21.5334ZM23.8145 21.979C23.3693 22.5545 22.2375 23.687 19.8441 23.687C17.5621 23.687 16.319 22.8701 15.7624 21.0321C15.5212 20.3452 15.5212 18.8971 15.5212 18.0617C15.5212 15.741 15.5212 13.8473 15.5955 11.638V10.6169H13.6288V10.0414C14.3709 9.72575 14.9461 9.42871 15.4656 9.02027C16.5973 8.12912 17.3395 7.07089 18.1744 5.49282H18.7866V8.76035H23.7589V10.5983H18.7866V18.2844C18.7866 20.6051 19.2319 21.8676 21.3655 21.8676C22.3859 21.8676 23.0724 21.552 23.4435 21.2921L23.8145 21.979Z" fill="black"/>
</svg>